<svg version="1.0" xmlns="http://www.w3.org/2000/svg"
 width="352.000000pt" height="72.000000pt" viewBox="0 0 352.000000 72.000000"
 preserveAspectRatio="xMidYMid meet">

<g transform="translate(0.000000,72.000000) scale(0.100000,-0.100000)"
fill="#00B140" stroke="none">
<path d="M69 702 c-65 -32 -69 -54 -69 -353 0 -168 4 -278 11 -298 16 -46 73
-58 112 -24 15 15 17 40 17 250 0 128 4 233 8 233 5 0 95 -106 201 -236 107
-129 203 -241 215 -249 44 -28 100 -22 137 14 l29 29 0 305 c0 277 -2 305 -17
320 -10 8 -25 17 -33 18 -26 5 -67 -10 -76 -28 -5 -10 -11 -121 -14 -248 l-5
-230 -198 243 c-109 133 -206 246 -215 251 -38 19 -69 20 -103 3z"/>
<path d="M1763 709 c-35 -13 -43 -41 -43 -148 l0 -101 70 0 70 0 0 89 c0 48
-5 102 -11 119 -12 35 -52 54 -86 41z"/>
<path d="M2009 708 c-47 -16 -50 -42 -47 -351 l3 -287 32 -31 c37 -37 95 -43
134 -14 13 10 69 75 124 144 55 69 141 175 190 236 l90 110 5 -237 c4 -206 7
-240 22 -254 25 -25 77 -22 100 5 17 21 18 46 18 310 0 252 -2 290 -18 321
-30 60 -113 71 -166 21 -12 -11 -102 -121 -201 -245 -99 -124 -183 -225 -187
-225 -5 -1 -8 101 -8 227 0 184 -3 232 -15 249 -18 26 -42 32 -76 21z"/>
<path d="M2849 708 c-27 -9 -49 -45 -49 -79 0 -13 46 -68 122 -145 l121 -124
-121 -124 c-76 -77 -122 -132 -122 -145 0 -54 44 -92 96 -83 11 1 74 57 139
122 l119 119 122 -119 c67 -66 130 -121 141 -121 61 -4 94 20 95 70 1 29 -14
47 -123 157 l-124 124 124 124 c109 110 124 128 123 157 -1 50 -34 74 -95 70
-11 0 -74 -55 -141 -121 l-122 -119 -118 118 c-66 66 -129 121 -140 123 -12 3
-33 1 -47 -4z"/>
<path d="M921 535 l-101 -175 99 -173 99 -172 200 -3 200 -2 106 182 105 183
-215 3 c-236 3 -261 -2 -278 -51 -8 -22 -6 -32 11 -55 20 -26 23 -27 132 -30
61 -1 111 -6 111 -10 0 -4 -11 -25 -23 -47 l-23 -40 -123 0 -123 0 -60 108
-61 107 61 108 60 107 121 3 121 3 32 -47 c18 -25 38 -53 43 -61 8 -10 30 -13
93 -11 l83 3 -84 120 -84 120 -200 3 -201 2 -101 -175z"/>
<path d="M1720 219 c0 -94 4 -169 11 -180 25 -48 100 -40 118 13 6 17 11 98
11 179 l0 149 -70 0 -70 0 0 -161z"/>
</g>
</svg>
