<svg version="1.0" xmlns="http://www.w3.org/2000/svg"
 width="186.000000pt" height="186.000000pt" viewBox="0 0 186.000000 186.000000"
 preserveAspectRatio="xMidYMid meet">

<g transform="translate(0.000000,186.000000) scale(0.100000,-0.100000)"
fill="#00B140" stroke="none">
<path d="M765 1684 c-82 -48 -163 -94 -180 -104 -65 -38 -302 -174 -327 -187
-59 -31 -58 -21 -58 -463 l0 -407 22 -19 c29 -26 53 -40 212 -132 72 -41 145
-82 161 -92 185 -108 319 -180 335 -180 16 0 150 72 335 180 17 10 89 51 161
92 159 92 183 106 212 132 l22 19 0 412 0 412 -22 19 c-13 10 -34 25 -47 32
-65 37 -281 162 -322 186 -136 80 -329 186 -340 186 -8 -1 -81 -39 -164 -86z
m-49 -393 c23 -11 46 -26 50 -34 5 -8 32 -41 60 -73 28 -33 107 -126 175 -209
l124 -149 5 209 c3 116 9 218 14 228 13 27 63 49 97 42 16 -4 38 -18 49 -32
19 -25 20 -40 20 -340 l0 -315 -29 -29 c-22 -21 -39 -29 -66 -29 -74 0 -95 18
-292 255 l-188 226 -5 -208 c-3 -142 -9 -215 -18 -230 -29 -51 -89 -57 -133
-14 l-29 29 0 312 c0 193 4 319 10 330 13 25 58 49 90 49 14 0 44 -8 66 -18z"/>
</g>
</svg>
