<svg version="1.0" xmlns="http://www.w3.org/2000/svg" width="109.000000pt" height="109.000000pt" viewBox="0 0 109.000000 109.000000" preserveAspectRatio="xMidYMid meet">

<g transform="translate(0.000000,109.000000) scale(0.100000,-0.100000)"
fill="#ffffff" stroke="none">
<path d="M517 928 c-32 -31 -142 -221 -129 -226 31 -10 108 -71 155 -122 82
-88 134 -194 151 -307 l6 -43 -43 0 -42 0 -11 58 c-16 82 -57 163 -116 228
-49 53 -127 114 -146 114 -15 0 -117 -183 -104 -188 57 -19 135 -113 148 -180
l7 -32 -102 0 c-55 0 -101 4 -101 9 0 5 11 29 25 54 l26 45 -23 16 c-31 22
-33 21 -61 -26 -35 -61 -40 -85 -27 -117 18 -43 47 -51 197 -51 l136 0 -5 64
c-6 75 -52 170 -105 216 -33 29 -33 31 -18 59 8 16 19 33 25 36 16 10 112 -96
141 -155 28 -57 49 -140 49 -190 l0 -30 110 0 110 0 0 35 c0 52 -29 182 -53
240 -44 106 -125 209 -220 280 l-27 20 43 69 c23 38 48 71 54 73 6 2 69 -96
141 -219 181 -311 242 -418 242 -423 0 -3 -22 -5 -50 -5 l-50 0 0 -35 0 -35
50 0 c27 0 60 5 74 11 29 14 51 59 41 88 -11 37 -376 656 -397 674 -28 24 -72
21 -101 -5z"/>
</g>
</svg>
