<svg version="1.0" xmlns="http://www.w3.org/2000/svg" width="269.000000pt" height="99.000000pt" viewBox="0 0 269.000000 99.000000" fill="#ffffff" preserveAspectRatio="xMidYMid meet">

<g transform="translate(0.000000,99.000000) scale(0.100000,-0.100000)"
fill="#ffffff" stroke="none">
<path d="M183 689 c-73 -36 -95 -129 -42 -185 12 -13 61 -36 114 -54 51 -17
101 -40 110 -50 22 -25 13 -64 -20 -86 -36 -24 -131 -15 -174 15 -31 22 -33
22 -52 6 -10 -10 -19 -22 -19 -26 0 -17 104 -61 154 -66 115 -12 186 38 186
129 0 65 -33 100 -116 123 -121 33 -144 49 -144 95 0 59 92 80 171 39 39 -20
41 -20 55 -2 22 30 17 39 -35 62 -63 27 -134 27 -188 0z"/>
<path d="M510 475 l0 -225 170 0 170 0 0 25 0 25 -135 0 -135 0 0 75 0 75 121
0 120 0 -3 28 -3 27 -117 3 -118 3 0 69 0 70 135 0 135 0 0 25 0 25 -170 0
-170 0 0 -225z"/>
<path d="M920 475 l0 -225 30 0 30 0 2 173 3 172 134 -173 c118 -150 138 -172
163 -172 l28 0 0 225 0 225 -30 0 -30 0 -2 -167 -3 -168 -130 168 c-121 155
-132 167 -162 167 l-33 0 0 -225z"/>
<path d="M1370 670 l0 -30 75 0 75 0 0 -195 0 -195 35 0 35 0 0 195 0 195 75
0 75 0 0 30 0 30 -185 0 -185 0 0 -30z"/>
<path d="M1800 475 l0 -225 30 0 30 0 0 80 0 80 60 0 60 0 48 -66 c26 -37 52
-73 57 -81 7 -9 24 -13 47 -11 l37 3 -59 82 -59 82 37 19 c100 52 107 177 13
239 -31 21 -45 23 -167 23 l-134 0 0 -225z m224 165 c49 -11 65 -27 73 -73 5
-31 1 -40 -25 -67 -29 -29 -33 -30 -121 -30 l-91 0 0 83 c0 46 3 87 7 90 9 10
111 8 157 -3z"/>
<path d="M2190 694 c0 -4 38 -65 85 -136 l85 -129 0 -89 0 -90 35 0 35 0 0 93
0 92 85 127 c47 70 85 130 85 133 0 3 -15 5 -34 5 -33 0 -38 -5 -102 -106
l-67 -106 -69 106 c-65 101 -70 106 -103 106 -19 0 -35 -3 -35 -6z"/>
</g>
</svg>
